<?xml version="1.0" encoding="UTF-8" standalone="no"?>
<svg width="149px" height="63px" viewBox="0 0 149 63" version="1.1" xmlns="http://www.w3.org/2000/svg" xmlns:xlink="http://www.w3.org/1999/xlink">
    <!-- Generator: Sketch 46.2 (44496) - http://www.bohemiancoding.com/sketch -->
    <title>Group 9</title>
    <desc>Created with Sketch.</desc>
    <defs></defs>
    <g id="Symbols" stroke="none" stroke-width="1" fill="none" fill-rule="evenodd">
        <g id="Footer" transform="translate(-88.000000, -54.000000)" fill="#1176BC">
            <g id="Group-9" transform="translate(88.000000, 54.000000)">
                <path d="M74.6796754,44.0789092 L79.3105923,44.0789092 L79.3105923,44.8361136 L77.4350039,44.8361136 L77.4350039,50.6959202 L76.5485652,50.6959202 L76.5485652,44.8361136 L74.6796754,44.8361136 L74.6796754,44.0789092 Z M82.8250876,50.6959202 L83.7092935,50.6959202 L83.7092935,44.0789092 L82.8250876,44.0789092 L82.8250876,50.6959202 Z M101.708243,45.9616876 C101.708243,47.059975 101.739503,48.6835302 101.775228,49.4998556 C101.534081,49.029161 101.26614,48.5198104 100.978103,48.0491158 L98.5599339,44.0789092 L97.3943898,44.0789092 L97.3943898,50.6959202 L98.2629658,50.6959202 L98.2629658,48.567562 C98.2629658,47.5193001 98.2339388,45.9298532 98.1959805,45.2272221 C98.4058678,45.6683562 98.6358506,46.1163119 98.9372845,46.596102 L101.411275,50.6959202 L102.563422,50.6959202 L102.563422,44.0789092 L101.708243,44.0789092 L101.708243,45.9616876 Z M70.126908,44.0789092 L72.5160503,50.6959202 L71.522435,50.6959202 L70.9865526,49.1474032 L68.2222927,49.1474032 L67.6819446,50.6959202 L66.7776431,50.6959202 L69.144457,44.0789092 L70.126908,44.0789092 Z M70.7431727,48.4311288 L69.8946923,46.0685603 C69.7718859,45.7342989 69.6870379,45.4227764 69.6088884,45.0794195 L69.5887928,45.0794195 C69.5106432,45.4000375 69.4168638,45.7433944 69.2895918,46.0776558 L68.4545084,48.4311288 L70.7431727,48.4311288 Z M93.5405023,47.3123764 C93.5405023,49.5203206 92.1561395,50.7936973 90.4614115,50.7936973 C88.5076736,50.7936973 87.5631809,49.472569 87.5631809,47.4601791 C87.5631809,45.2545088 88.9497766,43.9811321 90.6445046,43.9811321 C92.3995194,43.9811321 93.5405023,45.1385405 93.5405023,47.3123764 L93.5405023,47.3123764 Z M92.5982425,47.4192491 C92.5982425,45.7252033 91.8457743,44.7747186 90.5484924,44.7747186 C89.4700291,44.7747186 88.5076736,45.6683562 88.5076736,47.3328414 C88.5076736,48.9109189 89.1618967,49.9887413 90.539561,49.9887413 C91.5979287,49.9887413 92.5982425,49.1292121 92.5982425,47.4192491 L92.5982425,47.4192491 Z M4.16648551,48.7153647 C4.16648551,49.5066773 3.68419136,50.7277546 1.65453685,50.7277546 C1.26825497,50.7277546 0.63189464,50.7050157 0,50.6959202 L0,44.0789092 C0.471129926,44.0698137 1.13428437,44.0470748 1.91354667,44.0470748 C3.33810066,44.0470748 4.01911785,44.6473809 4.01911785,45.6365218 C4.01911785,46.334605 3.55915214,46.9485545 2.85803936,47.1759432 L2.85803936,47.1941343 C3.76010803,47.3533064 4.16648551,48.0309247 4.16648551,48.7153647 L4.16648551,48.7153647 Z M0.884205927,46.9303634 C1.06729907,46.9417329 1.239228,46.9417329 1.47367655,46.9417329 C2.53874278,46.9417329 3.10811781,46.5074204 3.10811781,45.7843244 C3.10811781,45.1976616 2.80891681,44.7747186 1.76171333,44.7747186 C1.46251233,44.7747186 1.14321574,44.7883619 0.884205927,44.7951836 L0.884205927,46.9303634 Z M3.2420884,48.7471991 C3.2420884,47.8922176 2.49185307,47.6170773 1.48930645,47.6170773 C1.37543144,47.6170773 1.03827211,47.6170773 0.884205927,47.6261728 L0.884205927,49.9409897 C1.04720348,49.9705502 1.32407605,49.9887413 1.71035793,49.9887413 C2.77095847,49.9887413 3.2420884,49.472569 3.2420884,48.7471991 L3.2420884,48.7471991 Z M117.126026,47.3123764 C117.126026,49.5203206 115.73943,50.7936973 114.044702,50.7936973 C112.088731,50.7936973 111.146471,49.472569 111.146471,47.4601791 C111.146471,45.2545088 112.530834,43.9811321 114.227795,43.9811321 C115.980577,43.9811321 117.126026,45.1385405 117.126026,47.3123764 L117.126026,47.3123764 Z M116.181533,47.4192491 C116.181533,45.7252033 115.429065,44.7747186 114.131783,44.7747186 C113.053319,44.7747186 112.088731,45.6683562 112.088731,47.3328414 C112.088731,48.9109189 112.745187,49.9887413 114.122851,49.9887413 C115.178986,49.9887413 116.181533,49.1292121 116.181533,47.4192491 L116.181533,47.4192491 Z M50.1072354,47.3123764 C50.1072354,49.5203206 48.7206397,50.7936973 47.0236789,50.7936973 C45.0721739,50.7936973 44.129914,49.472569 44.129914,47.4601791 C44.129914,45.2545088 45.5165097,43.9811321 47.2090049,43.9811321 C48.959554,43.9811321 50.1072354,45.1385405 50.1072354,47.3123764 L50.1072354,47.3123764 Z M49.1649755,47.4192491 C49.1649755,45.7252033 48.4125074,44.7747186 47.1129926,44.7747186 C46.0367621,44.7747186 45.0721739,45.6683562 45.0721739,47.3328414 C45.0721739,48.9109189 45.7263969,49.9887413 47.1018284,49.9887413 C48.1624289,49.9887413 49.1649755,49.1292121 49.1649755,47.4192491 L49.1649755,47.4192491 Z M23.7150282,44.0789092 L26.1019376,50.6959202 L25.1105552,50.6959202 L24.5746728,49.1474032 L21.80818,49.1474032 L21.267832,50.6959202 L20.3657633,50.6959202 L22.7325771,44.0789092 L23.7150282,44.0789092 Z M24.3312929,48.4311288 L23.4850453,46.0685603 C23.3600061,45.7342989 23.2729252,45.4227764 23.1947757,45.0794195 L23.1769129,45.0794195 C23.0987634,45.4000375 23.0005183,45.7433944 22.8799448,46.0776558 L22.0403957,48.4311288 L24.3312929,48.4311288 Z M30.1835751,45.7638594 C30.1835751,45.1453622 30.6457736,44.7337886 31.5322124,44.7337886 C31.9162614,44.7337886 32.3293374,44.8042791 32.7089208,44.9111518 L32.7558105,44.1107436 C32.3695286,44.0311576 31.9765482,43.9902276 31.5791021,43.9902276 C30.1165898,43.9902276 29.2703422,44.7747186 29.2703422,45.8639104 C29.2703422,47.9718036 32.1975997,47.380593 32.1975997,48.8722628 C32.1975997,49.6863144 31.5545408,50.0092063 30.7730457,50.0092063 C30.3220113,50.0092063 29.8084574,49.9023336 29.4333397,49.7659004 L29.38645,50.6277036 C29.7593348,50.7277546 30.2237662,50.7823279 30.697129,50.7823279 C32.2087639,50.7823279 33.1219968,49.9296203 33.1219968,48.7471991 C33.1219968,46.6756881 30.1835751,47.1941343 30.1835751,45.7638594 L30.1835751,45.7638594 Z M37.6546686,45.7638594 C37.6546686,45.1453622 38.1191,44.7337886 39.0010731,44.7337886 C39.3873549,44.7337886 39.8048966,44.8042791 40.1800143,44.9111518 L40.226904,44.1107436 C39.842855,44.0311576 39.4476417,43.9902276 39.0524285,43.9902276 C37.5876833,43.9902276 36.7436685,44.7747186 36.7436685,45.8639104 C36.7436685,47.9718036 39.6664604,47.380593 39.6664604,48.8722628 C39.6664604,49.6863144 39.0234015,50.0092063 38.2441392,50.0092063 C37.790872,50.0092063 37.2795509,49.9023336 36.9066661,49.7659004 L36.8575435,50.6277036 C37.2326612,50.7277546 37.6948598,50.7823279 38.1659897,50.7823279 C39.6798574,50.7823279 40.5908575,49.9296203 40.5908575,48.7471991 C40.5908575,46.6756881 37.6546686,47.1941343 37.6546686,45.7638594 L37.6546686,45.7638594 Z M62.3476821,50.6959202 L63.231888,50.6959202 L63.231888,44.0789092 L62.3476821,44.0789092 L62.3476821,50.6959202 Z M10.9052064,49.9705502 C9.3958044,49.9705502 8.70139015,49.0405305 8.70139015,47.4124274 C8.70139015,45.9616876 9.33775048,44.8042791 10.8203584,44.8042791 C11.3093511,44.8042791 11.7916452,44.8838652 12.2940349,45.0384895 L12.3900472,44.2153424 C11.9278486,44.0971003 11.4165275,44.0197882 10.9163707,44.0197882 C8.72148574,44.0197882 7.74126755,45.5387446 7.74126755,47.5602301 C7.74126755,49.4225435 8.60537789,50.7755062 10.6930863,50.7755062 C11.3495422,50.7755062 11.965807,50.6458946 12.4570325,50.4435187 L12.3610202,49.6385627 C11.9747384,49.834117 11.3763364,49.9705502 10.9052064,49.9705502 L10.9052064,49.9705502 Z M56.7879024,49.9705502 C55.2785004,49.9705502 54.5840861,49.0405305 54.5840861,47.4124274 C54.5840861,45.9616876 55.2204464,44.8042791 56.7030544,44.8042791 C57.1942799,44.8042791 57.6743412,44.8838652 58.1744981,45.0384895 L58.2705103,44.2153424 C57.8083118,44.0971003 57.2992235,44.0197882 56.7990666,44.0197882 C54.6041817,44.0197882 53.6194978,45.5387446 53.6194978,47.5602301 C53.6194978,49.4225435 54.4880739,50.7755062 56.5780151,50.7755062 C57.2322382,50.7755062 57.8485029,50.6458946 58.3397285,50.4435187 L58.2437162,49.6385627 C57.8574343,49.834117 57.2590323,49.9705502 56.7879024,49.9705502 L56.7879024,49.9705502 Z M120.97768,50.6959202 L121.861886,50.6959202 L121.861886,47.6966633 L124.161715,47.6966633 L124.161715,46.9712934 L121.861886,46.9712934 L121.861886,44.8224702 L124.286754,44.8224702 L124.286754,44.0789092 L120.97768,44.0789092 L120.97768,50.6959202 Z" id="Fill-5"></path>
                <path d="M76.3409108,59.087023 C76.3409108,57.3929772 75.5862097,56.4424925 74.2889278,56.4424925 C73.2126974,56.4424925 72.2481091,57.3361301 72.2481091,59.0006153 C72.2481091,60.5786928 72.904565,61.6565152 74.2799964,61.6565152 C75.3383641,61.6565152 76.3409108,60.796986 76.3409108,59.087023 L76.3409108,59.087023 Z M139.014588,58.7368444 C139.947916,58.7368444 140.483799,58.2570543 140.483799,57.5498754 C140.483799,56.7562889 139.994806,56.4424925 139.052546,56.4424925 C138.829262,56.4424925 138.637237,56.4561358 138.465309,56.4629575 L138.465309,58.7141055 C138.559088,58.7277489 138.751112,58.7368444 139.014588,58.7368444 L139.014588,58.7368444 Z M132.784955,59.087023 C132.784955,57.3929772 132.03472,56.4424925 130.732972,56.4424925 C129.654509,56.4424925 128.692154,57.3361301 128.692154,59.0006153 C128.692154,60.5786928 129.344144,61.6565152 130.724041,61.6565152 C131.780176,61.6565152 132.784955,60.796986 132.784955,59.087023 L132.784955,59.087023 Z M46.949995,60.0989027 L46.1037474,57.7363342 C45.9787082,57.4020728 45.8916273,57.0905503 45.8134778,56.7471933 L45.7978479,56.7471933 C45.7174656,57.0678114 45.6214533,57.4111683 45.4964141,57.7454297 L44.6613307,60.0989027 L46.949995,60.0989027 Z M25.1016238,57.6294615 C25.1016238,58.7277489 25.1328836,60.3513041 25.1686091,61.1676295 C24.9296949,60.6969349 24.6617537,60.1875843 24.3714841,59.7168897 L21.9577805,55.7466831 L20.7877707,55.7466831 L20.7877707,62.3636941 L21.6541138,62.3636941 L21.6541138,60.2353359 C21.6541138,59.187074 21.6273197,57.5976271 21.5893614,56.894996 C21.7992487,57.3361301 22.0314644,57.7840858 22.3328982,58.2638759 L24.8046557,62.3636941 L25.9612685,62.3636941 L25.9612685,55.7466831 L25.1016238,55.7466831 L25.1016238,57.6294615 Z M107.498005,62.3636941 L110.836106,62.3636941 L110.836106,61.6087636 L108.382211,61.6087636 L108.382211,59.3144117 L110.724464,59.3144117 L110.724464,58.5890418 L108.382211,58.5890418 L108.382211,56.4902441 L110.836106,56.4902441 L110.836106,55.7466831 L107.498005,55.7466831 L107.498005,62.3636941 Z M77.2831706,58.9801503 C77.2831706,61.1880945 75.8965749,62.4614712 74.2018469,62.4614712 C72.2481091,62.4614712 71.3036164,61.1403429 71.3036164,59.127953 C71.3036164,56.9222826 72.6879792,55.648906 74.3849401,55.648906 C76.137722,55.648906 77.2831706,56.8063144 77.2831706,58.9801503 L77.2831706,58.9801503 Z M100.611917,57.4316333 C100.611917,56.8131361 101.074115,56.4015625 101.962787,56.4015625 C102.346836,56.4015625 102.762145,56.472053 103.137263,56.5789257 L103.186385,55.7785175 C102.802336,55.6989315 102.40489,55.6580015 102.009677,55.6580015 C100.547164,55.6580015 99.698684,56.4424925 99.698684,57.5316843 C99.698684,59.6395775 102.628174,59.0483669 102.628174,60.5400367 C102.628174,61.3540883 101.98065,61.6769802 101.201388,61.6769802 C100.74812,61.6769802 100.236799,61.5701075 99.8639144,61.4336743 L99.8170247,62.2954774 C100.187677,62.3955285 100.652108,62.4501018 101.123238,62.4501018 C102.637106,62.4501018 103.548106,61.5973942 103.548106,60.414973 C103.548106,58.343462 100.611917,58.8619082 100.611917,57.4316333 L100.611917,57.4316333 Z M94.9025367,57.6294615 C94.9025367,58.7277489 94.9315637,60.3513041 94.969522,61.1676295 C94.7283749,60.6969349 94.4604337,60.1875843 94.172397,59.7168897 L91.7564606,55.7466831 L90.5886835,55.7466831 L90.5886835,62.3636941 L91.4550267,62.3636941 L91.4550267,60.2353359 C91.4550267,59.187074 91.4259998,57.5976271 91.3858086,56.894996 C91.5979287,57.3361301 91.8301444,57.7840858 92.1293454,58.2638759 L94.6033357,62.3636941 L95.7577157,62.3636941 L95.7577157,55.7466831 L94.9025367,55.7466831 L94.9025367,57.6294615 Z M85.2923793,59.9010745 C85.2923793,61.2358461 84.7631955,61.7179102 83.6289111,61.7179102 C82.3226978,61.7179102 82.0190311,60.9811708 82.0190311,60.0670683 L82.0190311,55.7466831 L81.1370581,55.7466831 L81.1370581,60.1398326 C81.1370581,61.3131583 81.5389698,62.4614712 83.5708572,62.4614712 C85.2655852,62.4614712 86.1631882,61.5701075 86.1631882,59.8374057 L86.1631882,55.7466831 L85.2923793,55.7466831 L85.2923793,59.9010745 Z M115.837675,55.7466831 L114.951236,55.7466831 L114.951236,62.3636941 L118.166531,62.3636941 L118.166531,61.5905725 L115.837675,61.5905725 L115.837675,55.7466831 Z M139.994806,60.0011255 L141.832436,62.3636941 L140.707083,62.3636941 L138.5055,59.3917238 L138.465309,59.3917238 L138.465309,62.3636941 L137.57887,62.3636941 L137.57887,55.7466831 C138.01874,55.7148487 138.492103,55.7057531 139.206612,55.7057531 C140.483799,55.7057531 141.410429,56.1696261 141.410429,57.4316333 C141.410429,58.5594812 140.561948,59.2166345 139.427664,59.2939467 C139.619688,59.5304309 139.820644,59.7851063 139.994806,60.0011255 L139.994806,60.0011255 Z M122.565232,55.7466831 L121.683259,55.7466831 L121.683259,62.3636941 L124.894087,62.3636941 L124.894087,61.5905725 L122.565232,61.5905725 L122.565232,55.7466831 Z M133.724982,58.9801503 C133.724982,61.1880945 132.340619,62.4614712 130.645891,62.4614712 C128.692154,62.4614712 127.747661,61.1403429 127.747661,59.127953 C127.747661,56.9222826 129.136489,55.648906 130.828985,55.648906 C132.579534,55.648906 133.724982,56.8063144 133.724982,58.9801503 L133.724982,58.9801503 Z M146.088235,57.4316333 C146.088235,56.8131361 146.550434,56.4015625 147.436873,56.4015625 C147.820922,56.4015625 148.233998,56.472053 148.611348,56.5789257 L148.660471,55.7785175 C148.274189,55.6989315 147.878976,55.6580015 147.485995,55.6580015 C146.02125,55.6580015 145.17277,56.4424925 145.17277,57.5316843 C145.17277,59.6395775 148.10226,59.0483669 148.10226,60.5400367 C148.10226,61.3540883 147.456968,61.6769802 146.675473,61.6769802 C146.224439,61.6769802 145.713118,61.5701075 145.340233,61.4336743 L145.29111,62.2954774 C145.663995,62.3955285 146.126194,62.4501018 146.599556,62.4501018 C148.111191,62.4501018 149.024424,61.5973942 149.024424,60.414973 C149.024424,58.343462 146.088235,58.8619082 146.088235,57.4316333 L146.088235,57.4316333 Z M30.4090922,62.3636941 L31.2932982,62.3636941 L31.2932982,55.7466831 L30.4090922,55.7466831 L30.4090922,62.3636941 Z M38.3513157,61.6383241 C36.8396808,61.6383241 36.1452665,60.7083044 36.1452665,59.0802013 C36.1452665,57.6294615 36.7771612,56.472053 38.2642348,56.472053 C38.7532275,56.472053 39.2355216,56.5516391 39.7379113,56.7062634 L39.8339236,55.8831163 C39.3694922,55.7648742 38.8581711,55.687562 38.3580142,55.687562 C36.1631293,55.687562 35.1851439,57.2065185 35.1851439,59.228004 C35.1851439,61.0903174 36.0470214,62.4432801 38.1369627,62.4432801 C38.7934186,62.4432801 39.4074505,62.3136685 39.8986761,62.1112926 L39.8026638,61.3063366 C39.4186148,61.5018909 38.8202128,61.6383241 38.3513157,61.6383241 L38.3513157,61.6383241 Z M15.4579738,62.3636941 L16.3421798,62.3636941 L16.3421798,55.7466831 L15.4579738,55.7466831 L15.4579738,62.3636941 Z M9.60792451,55.7466831 L8.72595142,55.7466831 L8.72595142,62.3636941 L11.93678,62.3636941 L11.93678,61.5905725 L9.60792451,61.5905725 L9.60792451,55.7466831 Z M3.16840457,61.6383241 C1.65453685,61.6383241 0.960122598,60.7083044 0.960122598,59.0802013 C0.960122598,57.6294615 1.59871577,56.472053 3.08132369,56.472053 C3.56808352,56.472053 4.05484334,56.5516391 4.55276739,56.7062634 L4.64877965,55.8831163 C4.1865811,55.7648742 3.67972568,55.687562 3.17733595,55.687562 C0.980218187,55.687562 0,57.2065185 0,59.228004 C0,61.0903174 0.864110338,62.4432801 2.95405162,62.4432801 C3.60827469,62.4432801 4.22453943,62.3136685 4.71799779,62.1112926 L4.62198553,61.3063366 C4.2334708,61.5018909 3.64176734,61.6383241 3.16840457,61.6383241 L3.16840457,61.6383241 Z M46.3359631,55.7466831 L48.7206397,62.3636941 L47.7292573,62.3636941 L47.1911421,60.8151771 L44.429115,60.8151771 L43.8887669,62.3636941 L42.9822326,62.3636941 L45.3490464,55.7466831 L46.3359631,55.7466831 Z M66.5097019,61.6383241 C65.0002999,61.6383241 64.3058856,60.7083044 64.3058856,59.0802013 C64.3058856,57.6294615 64.9377803,56.472053 66.4248539,56.472053 C66.9138465,56.472053 67.3961407,56.5516391 67.8985304,56.7062634 L67.9923098,55.8831163 C67.5301113,55.7648742 67.0165573,55.687562 66.5208661,55.687562 C64.3215155,55.687562 63.3435302,57.2065185 63.3435302,59.228004 C63.3435302,61.0903174 64.2098734,62.4432801 66.2975818,62.4432801 C66.9518049,62.4432801 67.5680696,62.3136685 68.0570623,62.1112926 L67.9632829,61.3063366 C67.577001,61.5018909 66.9808318,61.6383241 66.5097019,61.6383241 L66.5097019,61.6383241 Z M53.1416694,55.7466831 L52.2574634,55.7466831 L52.2574634,62.3636941 L55.4727577,62.3636941 L55.4727577,61.5905725 L53.1416694,61.5905725 L53.1416694,55.7466831 Z" id="Fill-5-Copy"></path>
                <path d="M55.5840382,27.2874772 C55.9977683,27.6728595 56.2341854,28.2051688 56.2530988,28.7928769 C56.2743763,29.4383923 56.0202279,30.0959508 55.5710353,30.552388 C52.3935887,33.6956626 48.333124,35.3491936 43.8175562,35.3491936 C34.2272942,35.3491936 26.4243459,27.4404258 26.4243459,17.7191567 C26.4243459,7.94971475 34.2272942,0 43.8175562,0 C48.3094823,0 51.8982947,1.4018282 55.4551909,4.5463071 C55.9481207,4.99190541 56.2223646,5.57961346 56.2412779,6.20947269 C56.2590092,6.83933193 56.02141,7.43667453 55.5710353,7.89431604 L53.6785159,9.86819613 C53.2919739,10.3354722 52.7813128,10.6100571 52.2304608,10.6449824 C51.8155487,10.6726817 51.1925895,10.5727232 50.5767228,9.96695035 C48.6960243,8.30860204 46.1876383,7.31985551 43.8601113,7.31985551 C38.5017164,7.31985551 34.1398198,11.9444434 34.1398198,17.630037 C34.1398198,23.2891356 38.5206298,27.8944543 43.9050306,27.8944543 C46.6852964,27.8944543 48.6191887,26.8214054 50.6712897,25.2112299 C51.5424869,24.5199503 52.6761072,24.5139287 53.4834718,25.200391 L53.5673999,25.2774675 L55.5840382,27.2874772 Z M89.8373383,31.7097393 C90.1600477,32.4226966 90.1139464,33.2332038 89.7132193,33.8726976 C89.308946,34.5146 88.5985124,34.8975737 87.8088791,34.8975737 L84.5876953,34.8975737 C83.5486419,34.8975737 82.7105431,34.3423823 82.2885384,33.3729049 L81.2920401,31.0931276 L66.768934,31.0931276 L65.7724357,33.3753136 C65.3870757,34.2930052 64.481598,34.8975737 63.475643,34.8975737 L60.2532771,34.8975737 C59.4636438,34.8975737 58.7532103,34.5146 58.3489369,33.8739019 C57.9470277,33.2332038 57.9032906,32.4226966 58.2295462,31.7013091 L71.8495388,1.28500919 C72.2077108,0.552782771 73.0706334,0 73.8531742,0 L74.2976385,0 C75.0801792,0 75.9431019,0.552782771 76.3012739,1.28500919 L76.3237335,1.3343863 L89.8373383,31.7097393 Z M78.5318698,24.7812877 L74.029305,14.4819451 L69.5279223,24.7812877 L78.5318698,24.7812877 Z M148.352949,27.2874772 L146.336311,25.2774675 L146.253565,25.200391 C145.4462,24.5139287 144.31258,24.5199503 143.440201,25.2112299 C141.389282,26.8214054 139.454207,27.8944543 136.675124,27.8944543 C131.290723,27.8944543 126.909913,23.2891356 126.909913,17.630037 C126.909913,11.9444434 131.269445,7.31985551 136.631387,7.31985551 C138.957731,7.31985551 141.464935,8.30860204 143.344452,9.96695035 C143.963865,10.5727232 144.58446,10.6726817 145.001736,10.6449824 C145.551406,10.6100571 146.062067,10.3354722 146.446245,9.86819613 L148.339946,7.89431604 C148.790321,7.43787885 149.029102,6.83933193 149.010189,6.20947269 C148.992458,5.57961346 148.717032,4.99310973 148.22292,4.5463071 C144.667206,1.4018282 141.077211,0 136.585285,0 C126.996205,0 119.194439,7.94971475 119.194439,17.7191567 C119.194439,27.4404258 126.996205,35.3491936 136.585285,35.3491936 C141.104399,35.3491936 145.1625,33.6956626 148.339946,30.5535924 C148.789139,30.0971552 149.04447,29.4395966 149.023192,28.7928769 C149.003097,28.2051688 148.766679,27.6728595 148.352949,27.2874772 L148.352949,27.2874772 Z M24.5708353,24.7608143 C24.5708353,30.6342818 19.9205098,34.8975737 13.5136048,34.8975737 L2.24123467,34.8975737 C1.00477293,34.8975737 0,33.8739019 0,32.6153878 L0,2.7362145 C0,1.47529171 1.00477293,0.451619911 2.24123467,0.451619911 L13.0265855,0.451619911 C19.0765006,0.451619911 23.6417159,4.65469588 23.6417159,10.2270834 C23.6417159,13.0235139 22.541194,15.5140472 20.6143942,17.2446547 C23.1546965,18.9571974 24.5708353,21.5982706 24.5708353,24.7608143 L24.5708353,24.7608143 Z M7.31711107,14.172435 L12.5833033,14.172435 C14.6129446,14.172435 15.9250598,12.83564 15.9250598,10.7690273 C15.9250598,7.96416658 13.8315859,7.54506331 12.5833033,7.54506331 L7.31711107,7.54506331 L7.31711107,14.172435 Z M16.8541793,24.3995184 C16.8541793,22.4798327 15.5054194,21.0864347 13.6459984,21.0864347 L7.27337389,21.0864347 L7.27337389,27.8944543 L13.6459984,27.8944543 C16.5421086,27.8944543 16.8541793,25.4508895 16.8541793,24.3995184 L16.8541793,24.3995184 Z M116.078461,25.2774675 L115.994533,25.200391 C115.187168,24.5139287 114.05473,24.5199503 113.182351,25.2112299 C111.131432,26.8214054 109.196357,27.8944543 106.416092,27.8944543 C101.031691,27.8944543 96.6508808,23.2891356 96.6508808,17.630037 C96.6508808,11.9444434 101.011595,7.31985551 106.371172,7.31985551 C108.699881,7.31985551 111.207085,8.30860204 113.086602,9.96695035 C113.704833,10.5727232 114.32661,10.6726817 114.742704,10.6449824 C115.293556,10.6100571 115.803035,10.3354722 116.188395,9.86819613 L118.082096,7.89431604 C118.531289,7.43787885 118.77007,6.83933193 118.752339,6.20947269 C118.733426,5.57961346 118.458,4.99310973 117.96507,4.5463071 C114.409356,1.4018282 110.819361,0 106.327435,0 C96.7371731,0 88.9354068,7.94971475 88.9354068,17.7191567 C88.9354068,27.4404258 96.7371731,35.3491936 106.327435,35.3491936 C110.845367,35.3491936 114.905832,33.6956626 118.080914,30.5535924 C118.530107,30.0971552 118.785437,29.4395966 118.765342,28.7928769 C118.746429,28.2051688 118.507647,27.6728595 118.095099,27.2874772 L116.078461,25.2774675 Z" id="Fill-7"></path>
            </g>
        </g>
    </g>
</svg>